<svg width="454" height="417" viewBox="0 0 454 417" fill="none" xmlns="http://www.w3.org/2000/svg">
<path d="M105.98 91.9716C101.567 43.3158 156.497 12.0979 196.042 40.7867L197.991 42.2008C219.411 57.7407 248.933 55.4865 267.746 36.8746L292.185 12.6957C321.428 -16.2352 370.63 8.97725 364.386 49.6363C360.287 76.3329 381.764 100.092 408.735 98.6386C451.497 96.3342 470.501 151.518 435.386 176.031L423.006 184.674C401.139 199.94 396.65 230.678 412.838 251.873C439.044 286.184 411 335.784 368.266 329.637L340.432 325.634C313.462 321.755 287.288 336.63 276.82 361.786L266.016 387.749C249.429 427.609 192.464 426.322 176.396 386.249C166.47 361.496 137.764 349.623 113.458 360.599L99.6983 366.812C60.6688 384.437 22.9819 339.871 46.8441 304.311C61.8941 281.883 52.4717 251.273 27.4375 241.134C-10.6899 225.692 -7.17364 170.519 32.6466 160.199L65.9262 151.574C91.5435 144.935 108.587 120.725 106.197 94.3699L105.98 91.9716Z" fill="#6D4D28"/>
</svg>
